<svg id="K_B_copy_2" data-name="K_B copy 2" xmlns="http://www.w3.org/2000/svg" width="1000" height="1000" viewBox="0 0 1000 1000">
  <defs>
    <style>
      .cls-1 {
        fill: #fff;
        fill-rule: evenodd;
      }
      .cls-2{
        fill: #0165E1;
        fill-rule: evenodd;
      }
    </style>
  </defs>
  <g id="_01_copy_2" data-name="01 copy 2">
    <g id="white">
      <path id="Rounded_Rectangle_1" data-name="Rounded Rectangle 1" class="cls-1" d="M548.735,72.189h414.48a8,8,0,0,1,8,8V188.884c0,138.071-111.929,250-250,250H536.735a30,30,0,0,1-30-30v-294.7A42,42,0,0,1,548.735,72.189Z"/>
      <path id="Rounded_Rectangle_1_copy" data-name="Rounded Rectangle 1 copy" class="cls-1" d="M536.735,547.67h184.48c138.071,0,250,111.929,250,250v108.7a8,8,0,0,1-8,8H548.735a42,42,0,0,1-42-42V577.67A30,30,0,0,1,536.735,547.67Z"/>
      <path id="Rounded_Rectangle_1_copy_2" data-name="Rounded Rectangle 1 copy 2" class="cls-1" d="M92.476,72.189h276.7a30,30,0,0,1,30,30V897.811a30,30,0,0,1-30,30H92.476a60,60,0,0,1-60-60V132.189A60,60,0,0,1,92.476,72.189Z"/>
    </g>
    <g id="black">
      <path id="Rounded_Rectangle_1" data-name="Rounded Rectangle 1" class="cls-2" d="M548.735,72.189h414.48a8,8,0,0,1,8,8V188.884c0,138.071-111.929,250-250,250H536.735a30,30,0,0,1-30-30v-294.7A42,42,0,0,1,548.735,72.189Z"/>
      <path id="Rounded_Rectangle_1_copy" data-name="Rounded Rectangle 1 copy" class="cls-2" d="M536.735,547.67h184.48c138.071,0,250,111.929,250,250v108.7a8,8,0,0,1-8,8H548.735a42,42,0,0,1-42-42V577.67A30,30,0,0,1,536.735,547.67Z"/>
      <path id="Rounded_Rectangle_1_copy_2" data-name="Rounded Rectangle 1 copy 2" class="cls-2" d="M92.476,72.189h276.7a30,30,0,0,1,30,30V897.811a30,30,0,0,1-30,30H92.476a60,60,0,0,1-60-60V132.189A60,60,0,0,1,92.476,72.189Z"/>
    </g>
  </g>
</svg>
