<?xml version="1.0" standalone="no"?>
<!DOCTYPE svg PUBLIC "-//W3C//DTD SVG 20010904//EN"
 "http://www.w3.org/TR/2001/REC-SVG-20010904/DTD/svg10.dtd">
<svg version="1.0" xmlns="http://www.w3.org/2000/svg"
 width="700.000000pt" height="700.000000pt" viewBox="0 0 700.000000 700.000000"
 preserveAspectRatio="xMidYMid meet">
<metadata>
Created by potrace 1.14, written by Peter Selinger 2001-2017
</metadata>
<g transform="translate(0.000000,700.000000) scale(0.100000,-0.100000)"
fill="#000000" stroke="none">
<path d="M558 6483 c-157 -32 -298 -176 -323 -330 -4 -24 -7 -1225 -6 -2670 0
-2582 0 -2629 19 -2684 54 -153 183 -265 332 -287 30 -4 505 -7 1055 -7 l1000
1 41 22 c50 26 88 69 105 119 10 30 13 604 13 2863 l0 2825 -21 40 c-24 46
-54 75 -103 101 -33 17 -92 18 -1044 18 -742 1 -1025 -2 -1068 -11z"/>
<path d="M3766 6482 c-92 -23 -150 -74 -193 -169 l-26 -56 0 -1081 1 -1081 22
-48 c26 -55 67 -90 125 -107 44 -12 1548 -10 1595 3 13 4 42 9 64 13 21 3 80
16 130 29 702 178 1222 778 1304 1504 13 115 14 941 0 974 -7 19 -18 27 -37
28 -14 1 -681 2 -1480 3 -1149 1 -1465 -2 -1505 -12z"/>
<path d="M3688 3152 c-55 -18 -95 -55 -121 -112 -19 -44 -20 -63 -20 -1125 l1
-1080 25 -56 c40 -91 122 -157 215 -174 15 -3 688 -5 1496 -5 1280 0 1472 2
1492 15 l22 14 0 438 c-1 396 -6 546 -23 630 -3 15 -8 46 -11 68 -10 67 -71
257 -113 352 -159 362 -455 678 -796 852 -195 98 -370 152 -605 187 -25 3
-377 7 -782 8 -613 2 -745 0 -780 -12z"/>
</g>
</svg>
